<mxfile host="app.diagrams.net" modified="2023-04-15T16:00:31.381Z" agent="Mozilla/5.0 (Windows NT 10.0; Win64; x64) AppleWebKit/537.36 (KHTML, like Gecko) Chrome/112.0.0.0 Safari/537.36" etag="2y6YoZmajorCYgJDyc1u" version="21.1.8" type="device">
  <diagram name="Page-1" id="Gy40cJHfu90RGybGo_cq">
    <mxGraphModel dx="1434" dy="756" grid="1" gridSize="10" guides="1" tooltips="1" connect="1" arrows="1" fold="1" page="1" pageScale="1" pageWidth="827" pageHeight="1169" math="0" shadow="0">
      <root>
        <mxCell id="0" />
        <mxCell id="1" parent="0" />
        <mxCell id="Xkrp84CWBO_4jEsdIJb2-1" value="&lt;font style=&quot;font-size: 20px;&quot;&gt;Enter&lt;/font&gt;" style="rounded=0;whiteSpace=wrap;html=1;fillColor=#d5e8d4;strokeColor=#82b366;" vertex="1" parent="1">
          <mxGeometry x="369" y="30" width="90" height="30" as="geometry" />
        </mxCell>
        <mxCell id="Xkrp84CWBO_4jEsdIJb2-3" value="" style="endArrow=classic;html=1;rounded=0;exitX=0.5;exitY=1;exitDx=0;exitDy=0;" edge="1" parent="1" source="Xkrp84CWBO_4jEsdIJb2-1">
          <mxGeometry width="50" height="50" relative="1" as="geometry">
            <mxPoint x="409" y="170" as="sourcePoint" />
            <mxPoint x="414" y="110" as="targetPoint" />
          </mxGeometry>
        </mxCell>
        <mxCell id="Xkrp84CWBO_4jEsdIJb2-16" value="" style="edgeStyle=orthogonalEdgeStyle;rounded=0;orthogonalLoop=1;jettySize=auto;html=1;" edge="1" parent="1" source="Xkrp84CWBO_4jEsdIJb2-4" target="Xkrp84CWBO_4jEsdIJb2-15">
          <mxGeometry relative="1" as="geometry">
            <Array as="points">
              <mxPoint x="330" y="140" />
              <mxPoint x="330" y="140" />
            </Array>
          </mxGeometry>
        </mxCell>
        <mxCell id="Xkrp84CWBO_4jEsdIJb2-25" value="" style="edgeStyle=orthogonalEdgeStyle;rounded=0;orthogonalLoop=1;jettySize=auto;html=1;" edge="1" parent="1" source="Xkrp84CWBO_4jEsdIJb2-4" target="Xkrp84CWBO_4jEsdIJb2-24">
          <mxGeometry relative="1" as="geometry" />
        </mxCell>
        <mxCell id="Xkrp84CWBO_4jEsdIJb2-4" value="&lt;font style=&quot;font-size: 20px;&quot;&gt;7&lt;/font&gt;" style="ellipse;whiteSpace=wrap;html=1;" vertex="1" parent="1">
          <mxGeometry x="387.75" y="110" width="52.5" height="40" as="geometry" />
        </mxCell>
        <mxCell id="Xkrp84CWBO_4jEsdIJb2-17" value="" style="edgeStyle=orthogonalEdgeStyle;rounded=0;orthogonalLoop=1;jettySize=auto;html=1;" edge="1" parent="1" source="Xkrp84CWBO_4jEsdIJb2-15" target="Xkrp84CWBO_4jEsdIJb2-4">
          <mxGeometry relative="1" as="geometry">
            <Array as="points">
              <mxPoint x="320" y="120" />
              <mxPoint x="320" y="120" />
            </Array>
          </mxGeometry>
        </mxCell>
        <mxCell id="Xkrp84CWBO_4jEsdIJb2-60" style="edgeStyle=orthogonalEdgeStyle;rounded=0;orthogonalLoop=1;jettySize=auto;html=1;entryX=0;entryY=0.5;entryDx=0;entryDy=0;" edge="1" parent="1" source="Xkrp84CWBO_4jEsdIJb2-15" target="Xkrp84CWBO_4jEsdIJb2-58">
          <mxGeometry relative="1" as="geometry">
            <Array as="points">
              <mxPoint x="80" y="130" />
              <mxPoint x="80" y="730" />
            </Array>
          </mxGeometry>
        </mxCell>
        <mxCell id="Xkrp84CWBO_4jEsdIJb2-15" value="&lt;font style=&quot;font-size: 20px;&quot;&gt;8&lt;/font&gt;" style="ellipse;whiteSpace=wrap;html=1;" vertex="1" parent="1">
          <mxGeometry x="215" y="110" width="52.5" height="40" as="geometry" />
        </mxCell>
        <mxCell id="Xkrp84CWBO_4jEsdIJb2-18" value="&lt;font style=&quot;font-size: 20px;&quot;&gt;T&lt;/font&gt;" style="text;html=1;strokeColor=none;fillColor=none;align=center;verticalAlign=middle;whiteSpace=wrap;rounded=0;" vertex="1" parent="1">
          <mxGeometry x="310" y="90" width="30" height="30" as="geometry" />
        </mxCell>
        <mxCell id="Xkrp84CWBO_4jEsdIJb2-32" value="" style="edgeStyle=orthogonalEdgeStyle;rounded=0;orthogonalLoop=1;jettySize=auto;html=1;" edge="1" parent="1" source="Xkrp84CWBO_4jEsdIJb2-24" target="Xkrp84CWBO_4jEsdIJb2-31">
          <mxGeometry relative="1" as="geometry" />
        </mxCell>
        <mxCell id="Xkrp84CWBO_4jEsdIJb2-36" value="" style="edgeStyle=orthogonalEdgeStyle;rounded=0;orthogonalLoop=1;jettySize=auto;html=1;" edge="1" parent="1" source="Xkrp84CWBO_4jEsdIJb2-24" target="Xkrp84CWBO_4jEsdIJb2-35">
          <mxGeometry relative="1" as="geometry" />
        </mxCell>
        <mxCell id="Xkrp84CWBO_4jEsdIJb2-24" value="&lt;font style=&quot;font-size: 20px;&quot;&gt;17&lt;/font&gt;" style="ellipse;whiteSpace=wrap;html=1;" vertex="1" parent="1">
          <mxGeometry x="387.75" y="200" width="52.5" height="40" as="geometry" />
        </mxCell>
        <mxCell id="Xkrp84CWBO_4jEsdIJb2-26" value="&lt;span style=&quot;font-size: 20px;&quot;&gt;F&lt;/span&gt;" style="text;html=1;strokeColor=none;fillColor=none;align=center;verticalAlign=middle;whiteSpace=wrap;rounded=0;" vertex="1" parent="1">
          <mxGeometry x="414" y="160" width="36" height="30" as="geometry" />
        </mxCell>
        <mxCell id="Xkrp84CWBO_4jEsdIJb2-28" value="&lt;span style=&quot;font-size: 20px;&quot;&gt;F&lt;/span&gt;" style="text;html=1;strokeColor=none;fillColor=none;align=center;verticalAlign=middle;whiteSpace=wrap;rounded=0;" vertex="1" parent="1">
          <mxGeometry x="477" y="870" width="36" height="30" as="geometry" />
        </mxCell>
        <mxCell id="Xkrp84CWBO_4jEsdIJb2-29" value="&lt;font style=&quot;font-size: 20px;&quot;&gt;T&lt;/font&gt;" style="text;html=1;strokeColor=none;fillColor=none;align=center;verticalAlign=middle;whiteSpace=wrap;rounded=0;" vertex="1" parent="1">
          <mxGeometry x="429" y="780" width="30" height="30" as="geometry" />
        </mxCell>
        <mxCell id="Xkrp84CWBO_4jEsdIJb2-64" style="edgeStyle=orthogonalEdgeStyle;rounded=0;orthogonalLoop=1;jettySize=auto;html=1;" edge="1" parent="1" source="Xkrp84CWBO_4jEsdIJb2-31">
          <mxGeometry relative="1" as="geometry">
            <mxPoint x="120" y="730" as="targetPoint" />
          </mxGeometry>
        </mxCell>
        <mxCell id="Xkrp84CWBO_4jEsdIJb2-31" value="&lt;font style=&quot;font-size: 20px;&quot;&gt;14&lt;/font&gt;" style="ellipse;whiteSpace=wrap;html=1;" vertex="1" parent="1">
          <mxGeometry x="267.5" y="200" width="52.5" height="40" as="geometry" />
        </mxCell>
        <mxCell id="Xkrp84CWBO_4jEsdIJb2-33" value="&lt;font style=&quot;font-size: 20px;&quot;&gt;T&lt;/font&gt;" style="text;html=1;strokeColor=none;fillColor=none;align=center;verticalAlign=middle;whiteSpace=wrap;rounded=0;" vertex="1" parent="1">
          <mxGeometry x="340" y="190" width="30" height="30" as="geometry" />
        </mxCell>
        <mxCell id="Xkrp84CWBO_4jEsdIJb2-39" value="" style="edgeStyle=orthogonalEdgeStyle;rounded=0;orthogonalLoop=1;jettySize=auto;html=1;" edge="1" parent="1" source="Xkrp84CWBO_4jEsdIJb2-35" target="Xkrp84CWBO_4jEsdIJb2-38">
          <mxGeometry relative="1" as="geometry" />
        </mxCell>
        <mxCell id="Xkrp84CWBO_4jEsdIJb2-42" value="" style="edgeStyle=orthogonalEdgeStyle;rounded=0;orthogonalLoop=1;jettySize=auto;html=1;" edge="1" parent="1" source="Xkrp84CWBO_4jEsdIJb2-35" target="Xkrp84CWBO_4jEsdIJb2-41">
          <mxGeometry relative="1" as="geometry" />
        </mxCell>
        <mxCell id="Xkrp84CWBO_4jEsdIJb2-35" value="&lt;font style=&quot;font-size: 20px;&quot;&gt;15&lt;/font&gt;" style="ellipse;whiteSpace=wrap;html=1;" vertex="1" parent="1">
          <mxGeometry x="387.75" y="290" width="52.5" height="40" as="geometry" />
        </mxCell>
        <mxCell id="Xkrp84CWBO_4jEsdIJb2-37" value="&lt;span style=&quot;font-size: 20px;&quot;&gt;F&lt;/span&gt;" style="text;html=1;strokeColor=none;fillColor=none;align=center;verticalAlign=middle;whiteSpace=wrap;rounded=0;" vertex="1" parent="1">
          <mxGeometry x="414" y="250" width="36" height="30" as="geometry" />
        </mxCell>
        <mxCell id="Xkrp84CWBO_4jEsdIJb2-65" style="edgeStyle=orthogonalEdgeStyle;rounded=0;orthogonalLoop=1;jettySize=auto;html=1;" edge="1" parent="1" source="Xkrp84CWBO_4jEsdIJb2-38">
          <mxGeometry relative="1" as="geometry">
            <mxPoint x="160" y="730" as="targetPoint" />
          </mxGeometry>
        </mxCell>
        <mxCell id="Xkrp84CWBO_4jEsdIJb2-38" value="&lt;font style=&quot;font-size: 20px;&quot;&gt;16&lt;/font&gt;" style="ellipse;whiteSpace=wrap;html=1;" vertex="1" parent="1">
          <mxGeometry x="267.5" y="290" width="52.5" height="40" as="geometry" />
        </mxCell>
        <mxCell id="Xkrp84CWBO_4jEsdIJb2-40" value="&lt;font style=&quot;font-size: 20px;&quot;&gt;T&lt;/font&gt;" style="text;html=1;strokeColor=none;fillColor=none;align=center;verticalAlign=middle;whiteSpace=wrap;rounded=0;" vertex="1" parent="1">
          <mxGeometry x="339" y="280" width="30" height="30" as="geometry" />
        </mxCell>
        <mxCell id="Xkrp84CWBO_4jEsdIJb2-45" value="" style="edgeStyle=orthogonalEdgeStyle;rounded=0;orthogonalLoop=1;jettySize=auto;html=1;" edge="1" parent="1" source="Xkrp84CWBO_4jEsdIJb2-41" target="Xkrp84CWBO_4jEsdIJb2-44">
          <mxGeometry relative="1" as="geometry" />
        </mxCell>
        <mxCell id="Xkrp84CWBO_4jEsdIJb2-48" value="" style="edgeStyle=orthogonalEdgeStyle;rounded=0;orthogonalLoop=1;jettySize=auto;html=1;" edge="1" parent="1" source="Xkrp84CWBO_4jEsdIJb2-41" target="Xkrp84CWBO_4jEsdIJb2-47">
          <mxGeometry relative="1" as="geometry" />
        </mxCell>
        <mxCell id="Xkrp84CWBO_4jEsdIJb2-41" value="&lt;font style=&quot;font-size: 20px;&quot;&gt;17&lt;/font&gt;" style="ellipse;whiteSpace=wrap;html=1;" vertex="1" parent="1">
          <mxGeometry x="387" y="390" width="52.5" height="40" as="geometry" />
        </mxCell>
        <mxCell id="Xkrp84CWBO_4jEsdIJb2-43" value="&lt;span style=&quot;font-size: 20px;&quot;&gt;F&lt;/span&gt;" style="text;html=1;strokeColor=none;fillColor=none;align=center;verticalAlign=middle;whiteSpace=wrap;rounded=0;" vertex="1" parent="1">
          <mxGeometry x="414" y="340" width="36" height="30" as="geometry" />
        </mxCell>
        <mxCell id="Xkrp84CWBO_4jEsdIJb2-66" style="edgeStyle=orthogonalEdgeStyle;rounded=0;orthogonalLoop=1;jettySize=auto;html=1;" edge="1" parent="1" source="Xkrp84CWBO_4jEsdIJb2-44">
          <mxGeometry relative="1" as="geometry">
            <mxPoint x="200" y="730" as="targetPoint" />
          </mxGeometry>
        </mxCell>
        <mxCell id="Xkrp84CWBO_4jEsdIJb2-44" value="&lt;font style=&quot;font-size: 20px;&quot;&gt;18&lt;/font&gt;" style="ellipse;whiteSpace=wrap;html=1;" vertex="1" parent="1">
          <mxGeometry x="267.5" y="390" width="52.5" height="40" as="geometry" />
        </mxCell>
        <mxCell id="Xkrp84CWBO_4jEsdIJb2-46" value="&lt;font style=&quot;font-size: 20px;&quot;&gt;T&lt;/font&gt;" style="text;html=1;strokeColor=none;fillColor=none;align=center;verticalAlign=middle;whiteSpace=wrap;rounded=0;" vertex="1" parent="1">
          <mxGeometry x="340" y="380" width="30" height="30" as="geometry" />
        </mxCell>
        <mxCell id="Xkrp84CWBO_4jEsdIJb2-51" value="" style="edgeStyle=orthogonalEdgeStyle;rounded=0;orthogonalLoop=1;jettySize=auto;html=1;" edge="1" parent="1" source="Xkrp84CWBO_4jEsdIJb2-47" target="Xkrp84CWBO_4jEsdIJb2-50">
          <mxGeometry relative="1" as="geometry" />
        </mxCell>
        <mxCell id="Xkrp84CWBO_4jEsdIJb2-53" value="" style="edgeStyle=orthogonalEdgeStyle;rounded=0;orthogonalLoop=1;jettySize=auto;html=1;" edge="1" parent="1" source="Xkrp84CWBO_4jEsdIJb2-47" target="Xkrp84CWBO_4jEsdIJb2-52">
          <mxGeometry relative="1" as="geometry" />
        </mxCell>
        <mxCell id="Xkrp84CWBO_4jEsdIJb2-47" value="&lt;font style=&quot;font-size: 20px;&quot;&gt;19&lt;/font&gt;" style="ellipse;whiteSpace=wrap;html=1;" vertex="1" parent="1">
          <mxGeometry x="387" y="490" width="52.5" height="40" as="geometry" />
        </mxCell>
        <mxCell id="Xkrp84CWBO_4jEsdIJb2-49" value="&lt;span style=&quot;font-size: 20px;&quot;&gt;F&lt;/span&gt;" style="text;html=1;strokeColor=none;fillColor=none;align=center;verticalAlign=middle;whiteSpace=wrap;rounded=0;" vertex="1" parent="1">
          <mxGeometry x="414" y="440" width="36" height="30" as="geometry" />
        </mxCell>
        <mxCell id="Xkrp84CWBO_4jEsdIJb2-67" style="edgeStyle=orthogonalEdgeStyle;rounded=0;orthogonalLoop=1;jettySize=auto;html=1;" edge="1" parent="1" source="Xkrp84CWBO_4jEsdIJb2-50">
          <mxGeometry relative="1" as="geometry">
            <mxPoint x="240" y="730" as="targetPoint" />
          </mxGeometry>
        </mxCell>
        <mxCell id="Xkrp84CWBO_4jEsdIJb2-50" value="&lt;font style=&quot;font-size: 20px;&quot;&gt;20&lt;/font&gt;" style="ellipse;whiteSpace=wrap;html=1;" vertex="1" parent="1">
          <mxGeometry x="267.5" y="490" width="52.5" height="40" as="geometry" />
        </mxCell>
        <mxCell id="Xkrp84CWBO_4jEsdIJb2-59" value="" style="edgeStyle=orthogonalEdgeStyle;rounded=0;orthogonalLoop=1;jettySize=auto;html=1;" edge="1" parent="1" source="Xkrp84CWBO_4jEsdIJb2-52" target="Xkrp84CWBO_4jEsdIJb2-58">
          <mxGeometry relative="1" as="geometry" />
        </mxCell>
        <mxCell id="Xkrp84CWBO_4jEsdIJb2-52" value="&lt;font style=&quot;font-size: 20px;&quot;&gt;21&lt;/font&gt;" style="ellipse;whiteSpace=wrap;html=1;" vertex="1" parent="1">
          <mxGeometry x="387" y="590" width="52.5" height="40" as="geometry" />
        </mxCell>
        <mxCell id="Xkrp84CWBO_4jEsdIJb2-54" value="&lt;font style=&quot;font-size: 20px;&quot;&gt;T&lt;/font&gt;" style="text;html=1;strokeColor=none;fillColor=none;align=center;verticalAlign=middle;whiteSpace=wrap;rounded=0;" vertex="1" parent="1">
          <mxGeometry x="340" y="480" width="30" height="30" as="geometry" />
        </mxCell>
        <mxCell id="Xkrp84CWBO_4jEsdIJb2-55" value="&lt;span style=&quot;font-size: 20px;&quot;&gt;F&lt;/span&gt;" style="text;html=1;strokeColor=none;fillColor=none;align=center;verticalAlign=middle;whiteSpace=wrap;rounded=0;" vertex="1" parent="1">
          <mxGeometry x="414" y="540" width="36" height="30" as="geometry" />
        </mxCell>
        <mxCell id="Xkrp84CWBO_4jEsdIJb2-72" value="" style="edgeStyle=orthogonalEdgeStyle;rounded=0;orthogonalLoop=1;jettySize=auto;html=1;" edge="1" parent="1" source="Xkrp84CWBO_4jEsdIJb2-58" target="Xkrp84CWBO_4jEsdIJb2-71">
          <mxGeometry relative="1" as="geometry">
            <Array as="points">
              <mxPoint x="430" y="790" />
              <mxPoint x="430" y="790" />
            </Array>
          </mxGeometry>
        </mxCell>
        <mxCell id="Xkrp84CWBO_4jEsdIJb2-89" value="" style="edgeStyle=orthogonalEdgeStyle;rounded=0;orthogonalLoop=1;jettySize=auto;html=1;" edge="1" parent="1" source="Xkrp84CWBO_4jEsdIJb2-58" target="Xkrp84CWBO_4jEsdIJb2-88">
          <mxGeometry relative="1" as="geometry" />
        </mxCell>
        <mxCell id="Xkrp84CWBO_4jEsdIJb2-58" value="&lt;font style=&quot;font-size: 20px;&quot;&gt;28&lt;/font&gt;" style="ellipse;whiteSpace=wrap;html=1;" vertex="1" parent="1">
          <mxGeometry x="387" y="710" width="52.5" height="40" as="geometry" />
        </mxCell>
        <mxCell id="Xkrp84CWBO_4jEsdIJb2-73" value="" style="edgeStyle=orthogonalEdgeStyle;rounded=0;orthogonalLoop=1;jettySize=auto;html=1;" edge="1" parent="1" source="Xkrp84CWBO_4jEsdIJb2-71" target="Xkrp84CWBO_4jEsdIJb2-58">
          <mxGeometry relative="1" as="geometry">
            <Array as="points">
              <mxPoint x="400" y="790" />
              <mxPoint x="400" y="790" />
            </Array>
          </mxGeometry>
        </mxCell>
        <mxCell id="Xkrp84CWBO_4jEsdIJb2-75" value="" style="edgeStyle=orthogonalEdgeStyle;rounded=0;orthogonalLoop=1;jettySize=auto;html=1;" edge="1" parent="1" source="Xkrp84CWBO_4jEsdIJb2-71" target="Xkrp84CWBO_4jEsdIJb2-74">
          <mxGeometry relative="1" as="geometry" />
        </mxCell>
        <mxCell id="Xkrp84CWBO_4jEsdIJb2-76" value="" style="edgeStyle=orthogonalEdgeStyle;rounded=0;orthogonalLoop=1;jettySize=auto;html=1;" edge="1" parent="1" source="Xkrp84CWBO_4jEsdIJb2-71" target="Xkrp84CWBO_4jEsdIJb2-74">
          <mxGeometry relative="1" as="geometry" />
        </mxCell>
        <mxCell id="Xkrp84CWBO_4jEsdIJb2-77" value="" style="edgeStyle=orthogonalEdgeStyle;rounded=0;orthogonalLoop=1;jettySize=auto;html=1;" edge="1" parent="1" source="Xkrp84CWBO_4jEsdIJb2-71" target="Xkrp84CWBO_4jEsdIJb2-74">
          <mxGeometry relative="1" as="geometry" />
        </mxCell>
        <mxCell id="Xkrp84CWBO_4jEsdIJb2-78" value="" style="edgeStyle=orthogonalEdgeStyle;rounded=0;orthogonalLoop=1;jettySize=auto;html=1;" edge="1" parent="1" source="Xkrp84CWBO_4jEsdIJb2-71" target="Xkrp84CWBO_4jEsdIJb2-74">
          <mxGeometry relative="1" as="geometry" />
        </mxCell>
        <mxCell id="Xkrp84CWBO_4jEsdIJb2-80" value="" style="edgeStyle=orthogonalEdgeStyle;rounded=0;orthogonalLoop=1;jettySize=auto;html=1;" edge="1" parent="1" source="Xkrp84CWBO_4jEsdIJb2-71" target="Xkrp84CWBO_4jEsdIJb2-79">
          <mxGeometry relative="1" as="geometry" />
        </mxCell>
        <mxCell id="Xkrp84CWBO_4jEsdIJb2-71" value="&lt;font style=&quot;font-size: 20px;&quot;&gt;29&lt;/font&gt;" style="ellipse;whiteSpace=wrap;html=1;" vertex="1" parent="1">
          <mxGeometry x="387" y="830" width="52.5" height="40" as="geometry" />
        </mxCell>
        <mxCell id="Xkrp84CWBO_4jEsdIJb2-83" value="" style="edgeStyle=orthogonalEdgeStyle;rounded=0;orthogonalLoop=1;jettySize=auto;html=1;" edge="1" parent="1" source="Xkrp84CWBO_4jEsdIJb2-74" target="Xkrp84CWBO_4jEsdIJb2-82">
          <mxGeometry relative="1" as="geometry" />
        </mxCell>
        <mxCell id="Xkrp84CWBO_4jEsdIJb2-74" value="&lt;font style=&quot;font-size: 20px;&quot;&gt;30&lt;/font&gt;" style="ellipse;whiteSpace=wrap;html=1;" vertex="1" parent="1">
          <mxGeometry x="320" y="920" width="52.5" height="40" as="geometry" />
        </mxCell>
        <mxCell id="Xkrp84CWBO_4jEsdIJb2-85" style="edgeStyle=orthogonalEdgeStyle;rounded=0;orthogonalLoop=1;jettySize=auto;html=1;" edge="1" parent="1" source="Xkrp84CWBO_4jEsdIJb2-79" target="Xkrp84CWBO_4jEsdIJb2-82">
          <mxGeometry relative="1" as="geometry">
            <Array as="points">
              <mxPoint x="420" y="940" />
            </Array>
          </mxGeometry>
        </mxCell>
        <mxCell id="Xkrp84CWBO_4jEsdIJb2-79" value="&lt;font style=&quot;font-size: 20px;&quot;&gt;32&lt;/font&gt;" style="ellipse;whiteSpace=wrap;html=1;" vertex="1" parent="1">
          <mxGeometry x="450" y="920" width="52.5" height="40" as="geometry" />
        </mxCell>
        <mxCell id="Xkrp84CWBO_4jEsdIJb2-81" value="&lt;font style=&quot;font-size: 20px;&quot;&gt;T&lt;/font&gt;" style="text;html=1;strokeColor=none;fillColor=none;align=center;verticalAlign=middle;whiteSpace=wrap;rounded=0;" vertex="1" parent="1">
          <mxGeometry x="320" y="870" width="30" height="30" as="geometry" />
        </mxCell>
        <mxCell id="Xkrp84CWBO_4jEsdIJb2-87" style="edgeStyle=orthogonalEdgeStyle;rounded=0;orthogonalLoop=1;jettySize=auto;html=1;" edge="1" parent="1" source="Xkrp84CWBO_4jEsdIJb2-82">
          <mxGeometry relative="1" as="geometry">
            <mxPoint x="280" y="730" as="targetPoint" />
          </mxGeometry>
        </mxCell>
        <mxCell id="Xkrp84CWBO_4jEsdIJb2-82" value="&lt;font style=&quot;font-size: 20px;&quot;&gt;33&lt;/font&gt;" style="ellipse;whiteSpace=wrap;html=1;" vertex="1" parent="1">
          <mxGeometry x="387.75" y="1000" width="52.5" height="40" as="geometry" />
        </mxCell>
        <mxCell id="Xkrp84CWBO_4jEsdIJb2-92" style="edgeStyle=orthogonalEdgeStyle;rounded=0;orthogonalLoop=1;jettySize=auto;html=1;entryX=0;entryY=0.5;entryDx=0;entryDy=0;" edge="1" parent="1" source="Xkrp84CWBO_4jEsdIJb2-88" target="Xkrp84CWBO_4jEsdIJb2-91">
          <mxGeometry relative="1" as="geometry" />
        </mxCell>
        <mxCell id="Xkrp84CWBO_4jEsdIJb2-88" value="&lt;font style=&quot;font-size: 20px;&quot;&gt;36&lt;/font&gt;" style="ellipse;whiteSpace=wrap;html=1;" vertex="1" parent="1">
          <mxGeometry x="540" y="710" width="52.5" height="40" as="geometry" />
        </mxCell>
        <mxCell id="Xkrp84CWBO_4jEsdIJb2-90" value="&lt;span style=&quot;font-size: 20px;&quot;&gt;F&lt;/span&gt;" style="text;html=1;strokeColor=none;fillColor=none;align=center;verticalAlign=middle;whiteSpace=wrap;rounded=0;" vertex="1" parent="1">
          <mxGeometry x="459" y="700" width="36" height="30" as="geometry" />
        </mxCell>
        <mxCell id="Xkrp84CWBO_4jEsdIJb2-91" value="&lt;font style=&quot;font-size: 20px;&quot;&gt;Exit&lt;/font&gt;" style="rounded=0;whiteSpace=wrap;html=1;fillColor=#d5e8d4;strokeColor=#82b366;" vertex="1" parent="1">
          <mxGeometry x="670" y="715" width="90" height="30" as="geometry" />
        </mxCell>
      </root>
    </mxGraphModel>
  </diagram>
</mxfile>
